# xmcd
#
# Track frame offsets:
#	150
#	17527
#	36955
#	56330
#	70147
#	83957
#	102422
#	117752
#	133397
#	150715
#	170117
#	189480
#	203290
#	217095
#	235637
#	250905
#
# Disc length: 3554 seconds
#
# Revision: 0
# Processed by: cddbd v1.5.2PL0 Copyright (c) Steve Scherf et al.
# Submitted via: audiograbber 1.83.01
#
DISCID=db0de010
DTITLE=Various Artist - SC2052
DYEAR=1900
DGENRE=Country
TTITLE0=Wright, Chely - The Love He Left Behind
TTITLE1=Couroy, Patricia - What Else Can I Do
TTITLE2=Hill, Faith - You Can't Lose Me
TTITLE3=Rimes, Leann - Blue
TTITLE4=White, Lari - Don't Fence Me In
TTITLE5=Clark, Terri - Suddenly Single
TTITLE6=Reeves, Donna - My Heart Wasn't In It
TTITLE7=Mccready, Mindy - Guys Do It All The Time
TTITLE8=Wright, Chely - The Love He Left Behind (Vocal)
TTITLE9=Couroy, Patricia - What Else Can I Do (Vocal)
TTITLE10=Hill, Faith - You Can't Lose Me (Vocal)
TTITLE11=Rimes, Leann - Blue (Vocal)
TTITLE12=White, Lari - Don't Fence Me In (Vocal)
TTITLE13=Clark, Terri - Suddenly Single (Vocal)
TTITLE14=Reeves, Donna - My Heart Wasn't In It (Vocal)
TTITLE15=Mccready, Mindy - Guys Do It All The Time (Vocal)
EXTD=Tracks 9 - 16 Have Demonstration Vocals
EXTT0=
EXTT1=
EXTT2=
EXTT3=
EXTT4=
EXTT5=
EXTT6=
EXTT7=
EXTT8=Demonstration Vocals\n
EXTT9=Demonstration Vocals\n
EXTT10=Demonstration Vocals\n
EXTT11=Demonstration Vocals\n
EXTT12=Demonstration Vocals\n
EXTT13=Demonstration Vocals\n
EXTT14=Demonstration Vocals\n
EXTT15=Demonstration Vocals\n
PLAYORDER=
